<svg width="290" height="37" viewBox="0 0 290 37" fill="none" xmlns="http://www.w3.org/2000/svg">
<g clip-path="url(#clip0_400_102)">
<mask id="path-1-outside-1_400_102" maskUnits="userSpaceOnUse" x="1" y="4" width="150" height="26" fill="black">
<rect fill="white" x="1" y="4" width="150" height="26"/>
<path d="M9.27 28.36C8.15 28.36 7.14 28.17 6.24 27.79C5.36 27.41 4.6 26.87 3.96 26.17C3.34 25.45 2.86 24.6 2.52 23.62C2.18 22.62 2.01 21.51 2.01 20.29C2.01 19.05 2.18 17.93 2.52 16.93C2.88 15.93 3.37 15.08 3.99 14.38C4.61 13.66 5.35 13.11 6.21 12.73C7.09 12.35 8.06 12.16 9.12 12.16C10.16 12.16 11.1 12.35 11.94 12.73C12.8 13.11 13.53 13.64 14.13 14.32C14.73 14.98 15.19 15.77 15.51 16.69C15.83 17.61 15.99 18.62 15.99 19.72V20.86H4.53V21.58C4.53 22.26 4.64 22.89 4.86 23.47C5.08 24.05 5.39 24.55 5.79 24.97C6.21 25.39 6.71 25.72 7.29 25.96C7.89 26.18 8.55 26.29 9.27 26.29C10.31 26.29 11.21 26.05 11.97 25.57C12.73 25.09 13.31 24.43 13.71 23.59L15.48 24.79C15.02 25.83 14.25 26.69 13.17 27.37C12.11 28.03 10.81 28.36 9.27 28.36ZM9.12 14.14C8.46 14.14 7.85 14.26 7.29 14.5C6.73 14.74 6.24 15.07 5.82 15.49C5.42 15.91 5.1 16.41 4.86 16.99C4.64 17.55 4.53 18.17 4.53 18.85V19.06H13.41V18.73C13.41 18.05 13.3 17.43 13.08 16.87C12.88 16.31 12.59 15.83 12.21 15.43C11.85 15.01 11.4 14.69 10.86 14.47C10.34 14.25 9.76 14.14 9.12 14.14ZM18.8883 25.96H24.2883V7.84H18.8883V5.8H26.6883V25.96H32.0883V28H18.8883V25.96ZM42.1566 28.36C40.5366 28.36 39.1366 28.09 37.9566 27.55C36.7966 26.99 35.8066 26.25 34.9866 25.33L36.6066 23.92C37.3466 24.7 38.1566 25.3 39.0366 25.72C39.9166 26.14 40.9766 26.35 42.2166 26.35C43.4166 26.35 44.3966 26.14 45.1566 25.72C45.9366 25.28 46.3266 24.6 46.3266 23.68C46.3266 23.28 46.2466 22.95 46.0866 22.69C45.9466 22.41 45.7466 22.19 45.4866 22.03C45.2266 21.87 44.9366 21.75 44.6166 21.67C44.2966 21.57 43.9566 21.49 43.5966 21.43L41.1666 21.07C40.6266 20.99 40.0366 20.88 39.3966 20.74C38.7766 20.6 38.2066 20.38 37.6866 20.08C37.1666 19.76 36.7266 19.34 36.3666 18.82C36.0266 18.3 35.8566 17.62 35.8566 16.78C35.8566 16 36.0066 15.33 36.3066 14.77C36.6266 14.19 37.0666 13.71 37.6266 13.33C38.1866 12.93 38.8466 12.64 39.6066 12.46C40.3666 12.26 41.1966 12.16 42.0966 12.16C43.4966 12.16 44.7066 12.38 45.7266 12.82C46.7666 13.26 47.6566 13.87 48.3966 14.65L46.8366 16.12C46.6566 15.9 46.4266 15.68 46.1466 15.46C45.8866 15.22 45.5566 15.01 45.1566 14.83C44.7766 14.63 44.3266 14.47 43.8066 14.35C43.2866 14.23 42.6866 14.17 42.0066 14.17C40.7866 14.17 39.8466 14.38 39.1866 14.8C38.5466 15.22 38.2266 15.83 38.2266 16.63C38.2266 17.03 38.2966 17.37 38.4366 17.65C38.5966 17.91 38.8066 18.12 39.0666 18.28C39.3266 18.44 39.6166 18.57 39.9366 18.67C40.2766 18.75 40.6166 18.82 40.9566 18.88L43.3866 19.24C43.9466 19.32 44.5366 19.43 45.1566 19.57C45.7766 19.71 46.3466 19.94 46.8666 20.26C47.3866 20.56 47.8166 20.97 48.1566 21.49C48.5166 22.01 48.6966 22.69 48.6966 23.53C48.6966 25.07 48.0966 26.26 46.8966 27.1C45.7166 27.94 44.1366 28.36 42.1566 28.36ZM58.7348 28.36C57.6148 28.36 56.6048 28.17 55.7048 27.79C54.8248 27.41 54.0648 26.87 53.4248 26.17C52.8048 25.45 52.3248 24.6 51.9848 23.62C51.6448 22.62 51.4748 21.51 51.4748 20.29C51.4748 19.05 51.6448 17.93 51.9848 16.93C52.3448 15.93 52.8348 15.08 53.4548 14.38C54.0748 13.66 54.8148 13.11 55.6748 12.73C56.5548 12.35 57.5248 12.16 58.5848 12.16C59.6248 12.16 60.5648 12.35 61.4048 12.73C62.2648 13.11 62.9948 13.64 63.5948 14.32C64.1948 14.98 64.6548 15.77 64.9748 16.69C65.2948 17.61 65.4548 18.62 65.4548 19.72V20.86H53.9948V21.58C53.9948 22.26 54.1048 22.89 54.3248 23.47C54.5448 24.05 54.8548 24.55 55.2548 24.97C55.6748 25.39 56.1748 25.72 56.7548 25.96C57.3548 26.18 58.0148 26.29 58.7348 26.29C59.7748 26.29 60.6748 26.05 61.4348 25.57C62.1948 25.09 62.7748 24.43 63.1748 23.59L64.9448 24.79C64.4848 25.83 63.7148 26.69 62.6348 27.37C61.5748 28.03 60.2748 28.36 58.7348 28.36ZM58.5848 14.14C57.9248 14.14 57.3148 14.26 56.7548 14.5C56.1948 14.74 55.7048 15.07 55.2848 15.49C54.8848 15.91 54.5648 16.41 54.3248 16.99C54.1048 17.55 53.9948 18.17 53.9948 18.85V19.06H62.8748V18.73C62.8748 18.05 62.7648 17.43 62.5448 16.87C62.3448 16.31 62.0548 15.83 61.6748 15.43C61.3148 15.01 60.8648 14.69 60.3248 14.47C59.8048 14.25 59.2248 14.14 58.5848 14.14ZM77.2031 10.75V28H72.7031V10.75H66.6731V7.06H83.2331V10.75H77.2031ZM84.3914 5.8H88.8314V15.34H89.0114C89.1914 14.9 89.4114 14.49 89.6714 14.11C89.9314 13.73 90.2414 13.4 90.6014 13.12C90.9814 12.82 91.4114 12.59 91.8914 12.43C92.3914 12.25 92.9514 12.16 93.5714 12.16C94.3114 12.16 94.9914 12.29 95.6114 12.55C96.2314 12.79 96.7614 13.16 97.2014 13.66C97.6414 14.16 97.9814 14.77 98.2214 15.49C98.4814 16.21 98.6114 17.04 98.6114 17.98V28H94.1714V18.58C94.1714 16.58 93.3014 15.58 91.5614 15.58C91.2214 15.58 90.8814 15.63 90.5414 15.73C90.2214 15.81 89.9314 15.95 89.6714 16.15C89.4114 16.33 89.2014 16.56 89.0414 16.84C88.9014 17.12 88.8314 17.45 88.8314 17.83V28H84.3914V5.8ZM101.15 24.55H104.72V15.97H101.15V12.52H109.16V16.9H109.37C109.51 16.34 109.7 15.8 109.94 15.28C110.2 14.74 110.52 14.27 110.9 13.87C111.3 13.45 111.78 13.12 112.34 12.88C112.9 12.64 113.56 12.52 114.32 12.52H115.79V16.6H112.49C111.39 16.6 110.56 16.93 110 17.59C109.44 18.23 109.16 19.02 109.16 19.96V24.55H114.26V28H101.15V24.55ZM124.418 28.36C123.218 28.36 122.138 28.18 121.178 27.82C120.218 27.44 119.398 26.9 118.718 26.2C118.058 25.5 117.548 24.65 117.188 23.65C116.828 22.65 116.648 21.52 116.648 20.26C116.648 19 116.828 17.87 117.188 16.87C117.548 15.87 118.058 15.02 118.718 14.32C119.398 13.62 120.218 13.09 121.178 12.73C122.138 12.35 123.218 12.16 124.418 12.16C125.618 12.16 126.698 12.35 127.658 12.73C128.618 13.09 129.428 13.62 130.088 14.32C130.768 15.02 131.288 15.87 131.648 16.87C132.008 17.87 132.188 19 132.188 20.26C132.188 21.52 132.008 22.65 131.648 23.65C131.288 24.65 130.768 25.5 130.088 26.2C129.428 26.9 128.618 27.44 127.658 27.82C126.698 28.18 125.618 28.36 124.418 28.36ZM124.418 25.06C125.418 25.06 126.198 24.75 126.758 24.13C127.318 23.51 127.598 22.63 127.598 21.49V19.03C127.598 17.89 127.318 17.01 126.758 16.39C126.198 15.77 125.418 15.46 124.418 15.46C123.418 15.46 122.638 15.77 122.078 16.39C121.518 17.01 121.238 17.89 121.238 19.03V21.49C121.238 22.63 121.518 23.51 122.078 24.13C122.638 24.75 123.418 25.06 124.418 25.06ZM132.116 12.52H135.806L136.916 25.06H137.216L139.046 12.52H142.946L144.746 25.06H145.046L146.186 12.52H149.696L147.866 28H142.586L141.056 17.32H140.756L139.226 28H133.946L132.116 12.52Z"/>
</mask>
<path d="M9.27 28.36C8.15 28.36 7.14 28.17 6.24 27.79C5.36 27.41 4.6 26.87 3.96 26.17C3.34 25.45 2.86 24.6 2.52 23.62C2.18 22.62 2.01 21.51 2.01 20.29C2.01 19.05 2.18 17.93 2.52 16.93C2.88 15.93 3.37 15.08 3.99 14.38C4.61 13.66 5.35 13.11 6.21 12.73C7.09 12.35 8.06 12.16 9.12 12.16C10.16 12.16 11.1 12.35 11.94 12.73C12.8 13.11 13.53 13.64 14.13 14.32C14.73 14.98 15.19 15.77 15.51 16.69C15.83 17.61 15.99 18.62 15.99 19.72V20.86H4.53V21.58C4.53 22.26 4.64 22.89 4.86 23.47C5.08 24.05 5.39 24.55 5.79 24.97C6.21 25.39 6.71 25.72 7.29 25.96C7.89 26.18 8.55 26.29 9.27 26.29C10.31 26.29 11.21 26.05 11.97 25.57C12.73 25.09 13.31 24.43 13.71 23.59L15.48 24.79C15.02 25.83 14.25 26.69 13.17 27.37C12.11 28.03 10.81 28.36 9.27 28.36ZM9.12 14.14C8.46 14.14 7.85 14.26 7.29 14.5C6.73 14.74 6.24 15.07 5.82 15.49C5.42 15.91 5.1 16.41 4.86 16.99C4.64 17.55 4.53 18.17 4.53 18.85V19.06H13.41V18.73C13.41 18.05 13.3 17.43 13.08 16.87C12.88 16.31 12.59 15.83 12.21 15.43C11.85 15.01 11.4 14.69 10.86 14.47C10.34 14.25 9.76 14.14 9.12 14.14ZM18.8883 25.96H24.2883V7.84H18.8883V5.8H26.6883V25.96H32.0883V28H18.8883V25.96ZM42.1566 28.36C40.5366 28.36 39.1366 28.09 37.9566 27.55C36.7966 26.99 35.8066 26.25 34.9866 25.33L36.6066 23.92C37.3466 24.7 38.1566 25.3 39.0366 25.72C39.9166 26.14 40.9766 26.35 42.2166 26.35C43.4166 26.35 44.3966 26.14 45.1566 25.72C45.9366 25.28 46.3266 24.6 46.3266 23.68C46.3266 23.28 46.2466 22.95 46.0866 22.69C45.9466 22.41 45.7466 22.19 45.4866 22.03C45.2266 21.87 44.9366 21.75 44.6166 21.67C44.2966 21.57 43.9566 21.49 43.5966 21.43L41.1666 21.07C40.6266 20.99 40.0366 20.88 39.3966 20.74C38.7766 20.6 38.2066 20.38 37.6866 20.08C37.1666 19.76 36.7266 19.34 36.3666 18.82C36.0266 18.3 35.8566 17.62 35.8566 16.78C35.8566 16 36.0066 15.33 36.3066 14.77C36.6266 14.19 37.0666 13.71 37.6266 13.33C38.1866 12.93 38.8466 12.64 39.6066 12.46C40.3666 12.26 41.1966 12.16 42.0966 12.16C43.4966 12.16 44.7066 12.38 45.7266 12.82C46.7666 13.26 47.6566 13.87 48.3966 14.65L46.8366 16.12C46.6566 15.9 46.4266 15.68 46.1466 15.46C45.8866 15.22 45.5566 15.01 45.1566 14.83C44.7766 14.63 44.3266 14.47 43.8066 14.35C43.2866 14.23 42.6866 14.17 42.0066 14.17C40.7866 14.17 39.8466 14.38 39.1866 14.8C38.5466 15.22 38.2266 15.83 38.2266 16.63C38.2266 17.03 38.2966 17.37 38.4366 17.65C38.5966 17.91 38.8066 18.12 39.0666 18.28C39.3266 18.44 39.6166 18.57 39.9366 18.67C40.2766 18.75 40.6166 18.82 40.9566 18.88L43.3866 19.24C43.9466 19.32 44.5366 19.43 45.1566 19.57C45.7766 19.71 46.3466 19.94 46.8666 20.26C47.3866 20.56 47.8166 20.97 48.1566 21.49C48.5166 22.01 48.6966 22.69 48.6966 23.53C48.6966 25.07 48.0966 26.26 46.8966 27.1C45.7166 27.94 44.1366 28.36 42.1566 28.36ZM58.7348 28.36C57.6148 28.36 56.6048 28.17 55.7048 27.79C54.8248 27.41 54.0648 26.87 53.4248 26.17C52.8048 25.45 52.3248 24.6 51.9848 23.62C51.6448 22.62 51.4748 21.51 51.4748 20.29C51.4748 19.05 51.6448 17.93 51.9848 16.93C52.3448 15.93 52.8348 15.08 53.4548 14.38C54.0748 13.66 54.8148 13.11 55.6748 12.73C56.5548 12.35 57.5248 12.16 58.5848 12.16C59.6248 12.16 60.5648 12.35 61.4048 12.73C62.2648 13.11 62.9948 13.64 63.5948 14.32C64.1948 14.98 64.6548 15.77 64.9748 16.69C65.2948 17.61 65.4548 18.62 65.4548 19.72V20.86H53.9948V21.58C53.9948 22.26 54.1048 22.89 54.3248 23.47C54.5448 24.05 54.8548 24.55 55.2548 24.97C55.6748 25.39 56.1748 25.72 56.7548 25.96C57.3548 26.18 58.0148 26.29 58.7348 26.29C59.7748 26.29 60.6748 26.05 61.4348 25.57C62.1948 25.09 62.7748 24.43 63.1748 23.59L64.9448 24.79C64.4848 25.83 63.7148 26.69 62.6348 27.37C61.5748 28.03 60.2748 28.36 58.7348 28.36ZM58.5848 14.14C57.9248 14.14 57.3148 14.26 56.7548 14.5C56.1948 14.74 55.7048 15.07 55.2848 15.49C54.8848 15.91 54.5648 16.41 54.3248 16.99C54.1048 17.55 53.9948 18.17 53.9948 18.85V19.06H62.8748V18.73C62.8748 18.05 62.7648 17.43 62.5448 16.87C62.3448 16.31 62.0548 15.83 61.6748 15.43C61.3148 15.01 60.8648 14.69 60.3248 14.47C59.8048 14.25 59.2248 14.14 58.5848 14.14ZM77.2031 10.75V28H72.7031V10.75H66.6731V7.06H83.2331V10.75H77.2031ZM84.3914 5.8H88.8314V15.34H89.0114C89.1914 14.9 89.4114 14.49 89.6714 14.11C89.9314 13.73 90.2414 13.4 90.6014 13.12C90.9814 12.82 91.4114 12.59 91.8914 12.43C92.3914 12.25 92.9514 12.16 93.5714 12.16C94.3114 12.16 94.9914 12.29 95.6114 12.55C96.2314 12.79 96.7614 13.16 97.2014 13.66C97.6414 14.16 97.9814 14.77 98.2214 15.49C98.4814 16.21 98.6114 17.04 98.6114 17.98V28H94.1714V18.58C94.1714 16.58 93.3014 15.58 91.5614 15.58C91.2214 15.58 90.8814 15.63 90.5414 15.73C90.2214 15.81 89.9314 15.95 89.6714 16.15C89.4114 16.33 89.2014 16.56 89.0414 16.84C88.9014 17.12 88.8314 17.45 88.8314 17.83V28H84.3914V5.8ZM101.15 24.55H104.72V15.97H101.15V12.52H109.16V16.9H109.37C109.51 16.34 109.7 15.8 109.94 15.28C110.2 14.74 110.52 14.27 110.9 13.87C111.3 13.45 111.78 13.12 112.34 12.88C112.9 12.64 113.56 12.52 114.32 12.52H115.79V16.6H112.49C111.39 16.6 110.56 16.93 110 17.59C109.44 18.23 109.16 19.02 109.16 19.96V24.55H114.26V28H101.15V24.55ZM124.418 28.36C123.218 28.36 122.138 28.18 121.178 27.82C120.218 27.44 119.398 26.9 118.718 26.2C118.058 25.5 117.548 24.65 117.188 23.65C116.828 22.65 116.648 21.52 116.648 20.26C116.648 19 116.828 17.87 117.188 16.87C117.548 15.87 118.058 15.02 118.718 14.32C119.398 13.62 120.218 13.09 121.178 12.73C122.138 12.35 123.218 12.16 124.418 12.16C125.618 12.16 126.698 12.35 127.658 12.73C128.618 13.09 129.428 13.62 130.088 14.32C130.768 15.02 131.288 15.87 131.648 16.87C132.008 17.87 132.188 19 132.188 20.26C132.188 21.52 132.008 22.65 131.648 23.65C131.288 24.65 130.768 25.5 130.088 26.2C129.428 26.9 128.618 27.44 127.658 27.82C126.698 28.18 125.618 28.36 124.418 28.36ZM124.418 25.06C125.418 25.06 126.198 24.75 126.758 24.13C127.318 23.51 127.598 22.63 127.598 21.49V19.03C127.598 17.89 127.318 17.01 126.758 16.39C126.198 15.77 125.418 15.46 124.418 15.46C123.418 15.46 122.638 15.77 122.078 16.39C121.518 17.01 121.238 17.89 121.238 19.03V21.49C121.238 22.63 121.518 23.51 122.078 24.13C122.638 24.75 123.418 25.06 124.418 25.06ZM132.116 12.52H135.806L136.916 25.06H137.216L139.046 12.52H142.946L144.746 25.06H145.046L146.186 12.52H149.696L147.866 28H142.586L141.056 17.32H140.756L139.226 28H133.946L132.116 12.52Z" fill="black"/>
<path d="M6.24 27.79L5.84355 28.7081L5.85103 28.7112L6.24 27.79ZM3.96 26.17L3.20223 26.8225L3.21194 26.8338L3.22197 26.8448L3.96 26.17ZM2.52 23.62L1.57321 23.9419L1.57524 23.9478L2.52 23.62ZM2.52 16.93L1.57911 16.5913L1.5761 16.5997L1.57323 16.6081L2.52 16.93ZM3.99 14.38L4.73866 15.0431L4.74777 15.0325L3.99 14.38ZM6.21 12.73L5.81355 11.8119L5.80584 11.8153L6.21 12.73ZM11.94 12.73L11.5278 13.6411L11.5358 13.6447L11.94 12.73ZM14.13 14.32L13.3802 14.9816L13.3851 14.9872L13.3901 14.9927L14.13 14.32ZM15.51 16.69L14.5655 17.0185L14.5655 17.0185L15.51 16.69ZM15.99 20.86V21.86H16.99V20.86H15.99ZM4.53 20.86V19.86H3.53V20.86H4.53ZM4.86 23.47L3.925 23.8247L3.925 23.8247L4.86 23.47ZM5.79 24.97L5.06586 25.6597L5.07427 25.6685L5.08289 25.6771L5.79 24.97ZM7.29 25.96L6.90765 26.884L6.92655 26.8918L6.94575 26.8989L7.29 25.96ZM11.97 25.57L12.504 26.4155L12.504 26.4155L11.97 25.57ZM13.71 23.59L14.2712 22.7623L13.3076 22.109L12.8071 23.1601L13.71 23.59ZM15.48 24.79L16.3945 25.1945L16.7323 24.4309L16.0412 23.9623L15.48 24.79ZM13.17 27.37L13.6986 28.2189L13.7028 28.2162L13.17 27.37ZM5.82 15.49L5.11289 14.7829L5.10427 14.7915L5.09586 14.8003L5.82 15.49ZM4.86 16.99L3.93598 16.6076L3.93254 16.616L3.92925 16.6243L4.86 16.99ZM4.53 19.06H3.53V20.06H4.53V19.06ZM13.41 19.06V20.06H14.41V19.06H13.41ZM13.08 16.87L12.1383 17.2063L12.1435 17.2211L12.1492 17.2357L13.08 16.87ZM12.21 15.43L11.4507 16.0808L11.4674 16.1002L11.485 16.1187L12.21 15.43ZM10.86 14.47L10.4703 15.391L10.4827 15.3961L10.86 14.47ZM9.27 27.36C8.26419 27.36 7.38916 27.1897 6.62897 26.8688L5.85103 28.7112C6.89084 29.1503 8.03581 29.36 9.27 29.36V27.36ZM6.63644 26.8719C5.8848 26.5474 5.2416 26.0898 4.69803 25.4952L3.22197 26.8448C3.9584 27.6502 4.8352 28.2726 5.84356 28.7081L6.63644 26.8719ZM4.71777 25.5175C4.18725 24.9014 3.76725 24.1641 3.46476 23.2922L1.57524 23.9478C1.95275 25.0359 2.49275 25.9986 3.20223 26.8225L4.71777 25.5175ZM3.46677 23.2981C3.16701 22.4164 3.01 21.4172 3.01 20.29H1.01C1.01 21.6028 1.19299 22.8236 1.57323 23.9419L3.46677 23.2981ZM3.01 20.29C3.01 19.1409 3.16754 18.132 3.46677 17.2519L1.57323 16.6081C1.19246 17.728 1.01 18.9591 1.01 20.29H3.01ZM3.46089 17.2687C3.78376 16.3719 4.21337 15.636 4.73859 15.043L3.24141 13.717C2.52663 14.524 1.97624 15.4881 1.57911 16.5913L3.46089 17.2687ZM4.74777 15.0325C5.2719 14.4239 5.89152 13.964 6.61416 13.6447L5.80584 11.8153C4.80848 12.256 3.9481 12.8961 3.23223 13.7275L4.74777 15.0325ZM6.60644 13.6481C7.3486 13.3276 8.18185 13.16 9.12 13.16V11.16C7.93815 11.16 6.8314 11.3724 5.81356 11.8119L6.60644 13.6481ZM9.12 13.16C10.0361 13.16 10.833 13.3268 11.5278 13.6411L12.3522 11.8189C11.367 11.3732 10.2839 11.16 9.12 11.16V13.16ZM11.5358 13.6447C12.2687 13.9685 12.8793 14.414 13.3802 14.9816L14.8798 13.6584C14.1807 12.866 13.3313 12.2515 12.3442 11.8153L11.5358 13.6447ZM13.3901 14.9927C13.8913 15.5441 14.2857 16.214 14.5655 17.0185L16.4545 16.3615C16.0943 15.326 15.5687 14.4159 14.8699 13.6473L13.3901 14.9927ZM14.5655 17.0185C14.8443 17.8202 14.99 18.7175 14.99 19.72H16.99C16.99 18.5225 16.8157 17.3998 16.4545 16.3615L14.5655 17.0185ZM14.99 19.72V20.86H16.99V19.72H14.99ZM15.99 19.86H4.53V21.86H15.99V19.86ZM3.53 20.86V21.58H5.53V20.86H3.53ZM3.53 21.58C3.53 22.3695 3.65807 23.1209 3.925 23.8247L5.795 23.1153C5.62193 22.6591 5.53 22.1505 5.53 21.58H3.53ZM3.925 23.8247C4.18894 24.5205 4.5677 25.1366 5.06586 25.6597L6.51414 24.2803C6.2123 23.9634 5.97106 23.5795 5.795 23.1153L3.925 23.8247ZM5.08289 25.6771C5.60105 26.1953 6.21319 26.5967 6.90765 26.884L7.67235 25.036C7.20681 24.8433 6.81895 24.5847 6.49711 24.2629L5.08289 25.6771ZM6.94575 26.8989C7.66906 27.1641 8.44729 27.29 9.27 27.29V25.29C8.65271 25.29 8.11094 25.1959 7.63426 25.0211L6.94575 26.8989ZM9.27 27.29C10.4687 27.29 11.5604 27.0115 12.504 26.4155L11.436 24.7245C10.8596 25.0885 10.1513 25.29 9.27 25.29V27.29ZM12.504 26.4155C13.4295 25.8309 14.1346 25.0242 14.6129 24.0199L12.8071 23.1601C12.4854 23.8358 12.0305 24.3491 11.436 24.7245L12.504 26.4155ZM13.1488 24.4177L14.9188 25.6177L16.0412 23.9623L14.2712 22.7623L13.1488 24.4177ZM14.5655 24.3855C14.1956 25.2218 13.5702 25.9363 12.6372 26.5238L13.7028 28.2162C14.9298 27.4437 15.8444 26.4382 16.3945 25.1945L14.5655 24.3855ZM12.6414 26.5211C11.7734 27.0616 10.6667 27.36 9.27 27.36V29.36C10.9533 29.36 12.4466 28.9984 13.6986 28.2189L12.6414 26.5211ZM9.12 13.14C8.33597 13.14 7.59062 13.2832 6.89608 13.5809L7.68392 15.4191C8.10938 15.2368 8.58404 15.14 9.12 15.14V13.14ZM6.89608 13.5809C6.22222 13.8697 5.62519 14.2706 5.11289 14.7829L6.52711 16.1971C6.85481 15.8694 7.23778 15.6103 7.68392 15.4191L6.89608 13.5809ZM5.09586 14.8003C4.60412 15.3167 4.21921 15.9232 3.93598 16.6076L5.78402 17.3724C5.98079 16.8968 6.23588 16.5033 6.54414 16.1797L5.09586 14.8003ZM3.92925 16.6243C3.65792 17.315 3.53 18.061 3.53 18.85H5.53C5.53 18.279 5.62208 17.785 5.79075 17.3557L3.92925 16.6243ZM3.53 18.85V19.06H5.53V18.85H3.53ZM4.53 20.06H13.41V18.06H4.53V20.06ZM14.41 19.06V18.73H12.41V19.06H14.41ZM14.41 18.73C14.41 17.941 14.2821 17.195 14.0108 16.5043L12.1492 17.2357C12.3179 17.665 12.41 18.159 12.41 18.73H14.41ZM14.0217 16.5337C13.7785 15.8527 13.4183 15.25 12.935 14.7412L11.485 16.1187C11.7617 16.41 11.9815 16.7673 12.1383 17.2063L14.0217 16.5337ZM12.9693 14.7792C12.5 14.2318 11.9165 13.8206 11.2373 13.5439L10.4827 15.3961C10.8835 15.5594 11.2 15.7882 11.4507 16.0808L12.9693 14.7792ZM11.2496 13.549C10.591 13.2704 9.87606 13.14 9.12 13.14V15.14C9.64395 15.14 10.089 15.2296 10.4704 15.391L11.2496 13.549ZM18.8883 25.96V24.96H17.8883V25.96H18.8883ZM24.2883 25.96V26.96H25.2883V25.96H24.2883ZM24.2883 7.84H25.2883V6.84H24.2883V7.84ZM18.8883 7.84H17.8883V8.84H18.8883V7.84ZM18.8883 5.8V4.8H17.8883V5.8H18.8883ZM26.6883 5.8H27.6883V4.8H26.6883V5.8ZM26.6883 25.96H25.6883V26.96H26.6883V25.96ZM32.0883 25.96H33.0883V24.96H32.0883V25.96ZM32.0883 28V29H33.0883V28H32.0883ZM18.8883 28H17.8883V29H18.8883V28ZM18.8883 26.96H24.2883V24.96H18.8883V26.96ZM25.2883 25.96V7.84H23.2883V25.96H25.2883ZM24.2883 6.84H18.8883V8.84H24.2883V6.84ZM19.8883 7.84V5.8H17.8883V7.84H19.8883ZM18.8883 6.8H26.6883V4.8H18.8883V6.8ZM25.6883 5.8V25.96H27.6883V5.8H25.6883ZM26.6883 26.96H32.0883V24.96H26.6883V26.96ZM31.0883 25.96V28H33.0883V25.96H31.0883ZM32.0883 27H18.8883V29H32.0883V27ZM19.8883 28V25.96H17.8883V28H19.8883ZM37.9566 27.55L37.5218 28.4506L37.5311 28.455L37.5404 28.4593L37.9566 27.55ZM34.9866 25.33L34.33 24.5757L33.5668 25.24L34.24 25.9954L34.9866 25.33ZM36.6066 23.92L37.332 23.2317L36.6727 22.5367L35.95 23.1657L36.6066 23.92ZM39.0366 25.72L39.4673 24.8175L39.4673 24.8175L39.0366 25.72ZM45.1566 25.72L45.6403 26.5953L45.6479 26.591L45.1566 25.72ZM46.0866 22.69L45.1921 23.1372L45.2118 23.1766L45.2349 23.2141L46.0866 22.69ZM45.4866 22.03L46.0107 21.1783L46.0107 21.1783L45.4866 22.03ZM44.6166 21.67L44.3183 22.6245L44.3459 22.6331L44.374 22.6401L44.6166 21.67ZM43.5966 21.43L43.761 20.4436L43.752 20.4421L43.7431 20.4408L43.5966 21.43ZM41.1666 21.07L41.02 22.0592L41.02 22.0592L41.1666 21.07ZM39.3966 20.74L39.1763 21.7155L39.1829 21.7169L39.3966 20.74ZM37.6866 20.08L37.1625 20.9317L37.1745 20.9391L37.1868 20.9462L37.6866 20.08ZM36.3666 18.82L35.5296 19.3672L35.5368 19.3783L35.5444 19.3892L36.3666 18.82ZM36.3066 14.77L35.4309 14.2869L35.4251 14.2978L36.3066 14.77ZM37.6266 13.33L38.1881 14.1575L38.198 14.1507L38.2078 14.1437L37.6266 13.33ZM39.6066 12.46L39.837 13.4331L39.8491 13.4302L39.8611 13.4271L39.6066 12.46ZM45.7266 12.82L45.3305 13.7382L45.3369 13.741L45.7266 12.82ZM48.3966 14.65L49.0824 15.3778L49.8126 14.6897L49.122 13.9617L48.3966 14.65ZM46.8366 16.12L46.0626 16.7532L46.7418 17.5833L47.5224 16.8478L46.8366 16.12ZM46.1466 15.46L45.4683 16.1948L45.4975 16.2218L45.5287 16.2463L46.1466 15.46ZM45.1566 14.83L44.6908 15.7149L44.7181 15.7293L44.7462 15.7419L45.1566 14.83ZM43.8066 14.35L43.5817 15.3244L43.5817 15.3244L43.8066 14.35ZM39.1866 14.8L38.6496 13.9563L38.6379 13.964L39.1866 14.8ZM38.4366 17.65L37.5421 18.0972L37.5618 18.1366L37.5849 18.1741L38.4366 17.65ZM39.0666 18.28L38.5425 19.1317L38.5425 19.1317L39.0666 18.28ZM39.9366 18.67L39.6383 19.6245L39.6726 19.6352L39.7075 19.6434L39.9366 18.67ZM40.9566 18.88L40.7828 19.8648L40.7964 19.8672L40.81 19.8692L40.9566 18.88ZM43.3866 19.24L43.24 20.2292L43.2451 20.2299L43.3866 19.24ZM46.8666 20.26L46.3425 21.1117L46.3546 21.1191L46.3668 21.1262L46.8666 20.26ZM48.1566 21.49L47.3196 22.0372L47.3268 22.0483L47.3344 22.0592L48.1566 21.49ZM46.8966 27.1L46.3231 26.2807L46.3166 26.2853L46.8966 27.1ZM42.1566 27.36C40.6455 27.36 39.3939 27.108 38.3727 26.6407L37.5404 28.4593C38.8792 29.072 40.4276 29.36 42.1566 29.36V27.36ZM38.3913 26.6494C37.3442 26.144 36.4617 25.4821 35.7331 24.6646L34.24 25.9954C35.1514 27.0179 36.2489 27.836 37.5218 28.4506L38.3913 26.6494ZM35.6431 26.0843L37.2631 24.6743L35.95 23.1657L34.33 24.5757L35.6431 26.0843ZM35.8811 24.6083C36.6967 25.468 37.6045 26.1446 38.6058 26.6225L39.4673 24.8175C38.7086 24.4554 37.9964 23.932 37.332 23.2317L35.8811 24.6083ZM38.6058 26.6225C39.6517 27.1217 40.8667 27.35 42.2166 27.35V25.35C41.0864 25.35 40.1814 25.1583 39.4673 24.8175L38.6058 26.6225ZM42.2166 27.35C43.5243 27.35 44.6864 27.1224 45.6402 26.5952L44.6729 24.8448C44.1068 25.1576 43.3088 25.35 42.2166 25.35V27.35ZM45.6479 26.591C46.7527 25.9678 47.3266 24.9486 47.3266 23.68H45.3266C45.3266 24.2514 45.1205 24.5922 44.6652 24.849L45.6479 26.591ZM47.3266 23.68C47.3266 23.1511 47.2209 22.6253 46.9382 22.1659L45.2349 23.2141C45.2722 23.2747 45.3266 23.4089 45.3266 23.68H47.3266ZM46.981 22.2428C46.7599 21.8006 46.4336 21.4386 46.0107 21.1783L44.9625 22.8817C45.0595 22.9414 45.1332 23.0194 45.1921 23.1372L46.981 22.2428ZM46.0107 21.1783C45.6567 20.9605 45.2705 20.8027 44.8591 20.6999L44.374 22.6401C44.6026 22.6973 44.7964 22.7795 44.9625 22.8817L46.0107 21.1783ZM44.9148 20.7155C44.5473 20.6007 44.1623 20.5105 43.761 20.4436L43.4322 22.4164C43.7508 22.4695 44.0458 22.5393 44.3183 22.6245L44.9148 20.7155ZM43.7431 20.4408L41.3131 20.0808L41.02 22.0592L43.45 22.4192L43.7431 20.4408ZM41.3131 20.0808C40.7995 20.0047 40.2323 19.8992 39.6103 19.7631L39.1829 21.7169C39.8409 21.8608 40.4536 21.9753 41.02 22.0592L41.3131 20.0808ZM39.6168 19.7646C39.0892 19.6454 38.6142 19.4607 38.1863 19.2138L37.1868 20.9462C37.799 21.2993 38.464 21.5546 39.1763 21.7154L39.6168 19.7646ZM38.2107 19.2283C37.8127 18.9835 37.4729 18.6612 37.1888 18.2508L35.5444 19.3892C35.9802 20.0188 36.5204 20.5365 37.1625 20.9317L38.2107 19.2283ZM37.2035 18.2727C37.0013 17.9634 36.8566 17.4922 36.8566 16.78H34.8566C34.8566 17.7478 35.0518 18.6366 35.5296 19.3672L37.2035 18.2727ZM36.8566 16.78C36.8566 16.1277 36.9817 15.6275 37.188 15.2422L35.4251 14.2978C35.0315 15.0325 34.8566 15.8723 34.8566 16.78H36.8566ZM37.1821 15.2531C37.4243 14.8141 37.7555 14.451 38.1881 14.1575L37.0651 12.5025C36.3776 12.969 35.8288 13.5659 35.431 14.2869L37.1821 15.2531ZM38.2078 14.1437C38.649 13.8286 39.1863 13.5872 39.837 13.4331L39.3761 11.4869C38.5069 11.6928 37.7241 12.0314 37.0453 12.5163L38.2078 14.1437ZM39.8611 13.4271C40.527 13.2518 41.2703 13.16 42.0966 13.16V11.16C41.1228 11.16 40.2061 11.2682 39.3521 11.4929L39.8611 13.4271ZM42.0966 13.16C43.3946 13.16 44.4636 13.3642 45.3305 13.7382L46.1227 11.9018C44.9496 11.3958 43.5986 11.16 42.0966 11.16V13.16ZM45.3369 13.741C46.2567 14.1301 47.0306 14.6631 47.6711 15.3383L49.122 13.9617C48.2826 13.0769 47.2765 12.3899 46.1162 11.899L45.3369 13.741ZM47.7108 13.9222L46.1508 15.3922L47.5224 16.8478L49.0824 15.3778L47.7108 13.9222ZM47.6105 15.4868C47.3743 15.1981 47.0881 14.928 46.7644 14.6737L45.5287 16.2463C45.765 16.432 45.9388 16.6019 46.0626 16.7532L47.6105 15.4868ZM46.8248 14.7252C46.4693 14.397 46.0426 14.1321 45.5669 13.9181L44.7462 15.7419C45.0705 15.8879 45.3038 16.043 45.4683 16.1948L46.8248 14.7252ZM45.6223 13.9451C45.1504 13.6967 44.6159 13.5105 44.0314 13.3756L43.5817 15.3244C44.0373 15.4295 44.4027 15.5633 44.6908 15.7149L45.6223 13.9451ZM44.0314 13.3756C43.4208 13.2347 42.7427 13.17 42.0066 13.17V15.17C42.6304 15.17 43.1523 15.2253 43.5817 15.3244L44.0314 13.3756ZM42.0066 13.17C40.6942 13.17 39.5364 13.392 38.6497 13.9563L39.7234 15.6437C40.1567 15.368 40.8789 15.17 42.0066 15.17V13.17ZM38.6379 13.964C37.7013 14.5786 37.2266 15.5113 37.2266 16.63H39.2266C39.2266 16.1487 39.3918 15.8614 39.7352 15.636L38.6379 13.964ZM37.2266 16.63C37.2266 17.1434 37.3162 17.6452 37.5421 18.0972L39.331 17.2028C39.277 17.0948 39.2266 16.9166 39.2266 16.63H37.2266ZM37.5849 18.1741C37.8269 18.5674 38.1491 18.8896 38.5425 19.1317L39.5907 17.4283C39.464 17.3504 39.3662 17.2526 39.2882 17.1259L37.5849 18.1741ZM38.5425 19.1317C38.8797 19.3392 39.2467 19.5021 39.6383 19.6245L40.2348 17.7155C39.9864 17.6379 39.7734 17.5408 39.5907 17.4283L38.5425 19.1317ZM39.7075 19.6434C40.0656 19.7277 40.424 19.8015 40.7828 19.8648L41.1303 17.8952C40.8091 17.8385 40.4875 17.7723 40.1656 17.6966L39.7075 19.6434ZM40.81 19.8692L43.24 20.2292L43.5331 18.2508L41.1031 17.8908L40.81 19.8692ZM43.2451 20.2299C43.7757 20.3057 44.3393 20.4106 44.9363 20.5454L45.3768 18.5946C44.7339 18.4494 44.1174 18.3343 43.528 18.25L43.2451 20.2299ZM44.9363 20.5454C45.4533 20.6622 45.92 20.8517 46.3425 21.1117L47.3907 19.4083C46.7731 19.0283 46.0998 18.7578 45.3768 18.5946L44.9363 20.5454ZM46.3668 21.1262C46.7461 21.345 47.0623 21.6438 47.3196 22.0372L48.9935 20.9428C48.5708 20.2962 48.027 19.775 47.3663 19.3938L46.3668 21.1262ZM47.3344 22.0592C47.5461 22.365 47.6966 22.8276 47.6966 23.53H49.6966C49.6966 22.5524 49.487 21.655 48.9788 20.9208L47.3344 22.0592ZM47.6966 23.53C47.6966 24.7635 47.2399 25.639 46.3231 26.2808L47.47 27.9192C48.9532 26.881 49.6966 25.3765 49.6966 23.53H47.6966ZM46.3166 26.2853C45.358 26.9677 44.0033 27.36 42.1566 27.36V29.36C44.2698 29.36 46.0751 28.9123 47.4765 27.9147L46.3166 26.2853ZM55.7048 27.79L55.3084 28.7081L55.3159 28.7112L55.7048 27.79ZM53.4248 26.17L52.6671 26.8225L52.6768 26.8338L52.6868 26.8448L53.4248 26.17ZM51.9848 23.62L51.0381 23.9419L51.0401 23.9478L51.9848 23.62ZM51.9848 16.93L51.044 16.5913L51.0409 16.5997L51.0381 16.6081L51.9848 16.93ZM53.4548 14.38L54.2035 15.0431L54.2126 15.0325L53.4548 14.38ZM55.6748 12.73L55.2784 11.8119L55.2707 11.8153L55.6748 12.73ZM61.4048 12.73L60.9927 13.6411L61.0007 13.6447L61.4048 12.73ZM63.5948 14.32L62.845 14.9816L62.8499 14.9872L62.8549 14.9927L63.5948 14.32ZM64.9748 16.69L64.0303 17.0185L64.0303 17.0185L64.9748 16.69ZM65.4548 20.86V21.86H66.4548V20.86H65.4548ZM53.9948 20.86V19.86H52.9948V20.86H53.9948ZM54.3248 23.47L53.3898 23.8247L53.3898 23.8247L54.3248 23.47ZM55.2548 24.97L54.5307 25.6597L54.5391 25.6685L54.5477 25.6771L55.2548 24.97ZM56.7548 25.96L56.3725 26.884L56.3914 26.8918L56.4106 26.8989L56.7548 25.96ZM61.4348 25.57L61.9688 26.4155L61.9688 26.4155L61.4348 25.57ZM63.1748 23.59L63.736 22.7623L62.7725 22.109L62.272 23.1601L63.1748 23.59ZM64.9448 24.79L65.8594 25.1945L66.1971 24.4309L65.506 23.9623L64.9448 24.79ZM62.6348 27.37L63.1634 28.2189L63.1677 28.2162L62.6348 27.37ZM55.2848 15.49L54.5777 14.7829L54.5691 14.7915L54.5607 14.8003L55.2848 15.49ZM54.3248 16.99L53.4008 16.6076L53.3974 16.616L53.3941 16.6243L54.3248 16.99ZM53.9948 19.06H52.9948V20.06H53.9948V19.06ZM62.8748 19.06V20.06H63.8748V19.06H62.8748ZM62.5448 16.87L61.6031 17.2063L61.6084 17.2211L61.6141 17.2357L62.5448 16.87ZM61.6748 15.43L60.9156 16.0808L60.9322 16.1002L60.9498 16.1187L61.6748 15.43ZM60.3248 14.47L59.9352 15.391L59.9475 15.3961L60.3248 14.47ZM58.7348 27.36C57.729 27.36 56.854 27.1897 56.0938 26.8688L55.3159 28.7112C56.3557 29.1503 57.5007 29.36 58.7348 29.36V27.36ZM56.1013 26.8719C55.3496 26.5474 54.7064 26.0898 54.1629 25.4952L52.6868 26.8448C53.4232 27.6502 54.3 28.2726 55.3084 28.7081L56.1013 26.8719ZM54.1826 25.5175C53.6521 24.9014 53.2321 24.1641 52.9296 23.2922L51.0401 23.9478C51.4176 25.0359 51.9576 25.9986 52.6671 26.8225L54.1826 25.5175ZM52.9316 23.2981C52.6319 22.4164 52.4748 21.4172 52.4748 20.29H50.4748C50.4748 21.6028 50.6578 22.8236 51.0381 23.9419L52.9316 23.2981ZM52.4748 20.29C52.4748 19.1409 52.6324 18.132 52.9316 17.2519L51.0381 16.6081C50.6573 17.728 50.4748 18.9591 50.4748 20.29H52.4748ZM52.9257 17.2687C53.2486 16.3719 53.6782 15.636 54.2034 15.043L52.7063 13.717C51.9915 14.524 51.4411 15.4881 51.044 16.5913L52.9257 17.2687ZM54.2126 15.0325C54.7367 14.4239 55.3564 13.964 56.079 13.6447L55.2707 11.8153C54.2733 12.256 53.4129 12.8961 52.6971 13.7275L54.2126 15.0325ZM56.0713 13.6481C56.8134 13.3276 57.6467 13.16 58.5848 13.16V11.16C57.403 11.16 56.2962 11.3724 55.2784 11.8119L56.0713 13.6481ZM58.5848 13.16C59.5009 13.16 60.2978 13.3268 60.9927 13.6411L61.817 11.8189C60.8319 11.3732 59.7488 11.16 58.5848 11.16V13.16ZM61.0007 13.6447C61.7335 13.9685 62.3441 14.414 62.845 14.9816L64.3447 13.6584C63.6455 12.866 62.7962 12.2515 61.809 11.8153L61.0007 13.6447ZM62.8549 14.9927C63.3562 15.5441 63.7505 16.214 64.0303 17.0185L65.9193 16.3615C65.5592 15.326 65.0335 14.4159 64.3348 13.6473L62.8549 14.9927ZM64.0303 17.0185C64.3092 17.8202 64.4548 18.7175 64.4548 19.72H66.4548C66.4548 18.5225 66.2805 17.3998 65.9193 16.3615L64.0303 17.0185ZM64.4548 19.72V20.86H66.4548V19.72H64.4548ZM65.4548 19.86H53.9948V21.86H65.4548V19.86ZM52.9948 20.86V21.58H54.9948V20.86H52.9948ZM52.9948 21.58C52.9948 22.3695 53.1229 23.1209 53.3898 23.8247L55.2598 23.1153C55.0868 22.6591 54.9948 22.1505 54.9948 21.58H52.9948ZM53.3898 23.8247C53.6538 24.5205 54.0325 25.1366 54.5307 25.6597L55.979 24.2803C55.6771 23.9634 55.4359 23.5795 55.2598 23.1153L53.3898 23.8247ZM54.5477 25.6771C55.0659 26.1953 55.678 26.5967 56.3725 26.884L57.1372 25.036C56.6717 24.8433 56.2838 24.5847 55.962 24.2629L54.5477 25.6771ZM56.4106 26.8989C57.1339 27.1641 57.9121 27.29 58.7348 27.29V25.29C58.1175 25.29 57.5758 25.1959 57.0991 25.0211L56.4106 26.8989ZM58.7348 27.29C59.9336 27.29 61.0252 27.0115 61.9688 26.4155L60.9009 24.7245C60.3245 25.0885 59.6161 25.29 58.7348 25.29V27.29ZM61.9688 26.4155C62.8944 25.8309 63.5995 25.0242 64.0777 24.0199L62.272 23.1601C61.9502 23.8358 61.4953 24.3491 60.9009 24.7245L61.9688 26.4155ZM62.6137 24.4177L64.3837 25.6177L65.506 23.9623L63.736 22.7623L62.6137 24.4177ZM64.0303 24.3855C63.6604 25.2218 63.035 25.9363 62.102 26.5238L63.1677 28.2162C64.3947 27.4437 65.3093 26.4382 65.8594 25.1945L64.0303 24.3855ZM62.1063 26.5211C61.2382 27.0616 60.1316 27.36 58.7348 27.36V29.36C60.4181 29.36 61.9115 28.9984 63.1634 28.2189L62.1063 26.5211ZM58.5848 13.14C57.8008 13.14 57.0555 13.2832 56.3609 13.5809L57.1488 15.4191C57.5742 15.2368 58.0489 15.14 58.5848 15.14V13.14ZM56.3609 13.5809C55.6871 13.8697 55.09 14.2706 54.5777 14.7829L55.992 16.1971C56.3197 15.8694 56.7026 15.6103 57.1488 15.4191L56.3609 13.5809ZM54.5607 14.8003C54.069 15.3167 53.6841 15.9232 53.4008 16.6076L55.2489 17.3724C55.4456 16.8968 55.7007 16.5033 56.009 16.1797L54.5607 14.8003ZM53.3941 16.6243C53.1228 17.315 52.9948 18.061 52.9948 18.85H54.9948C54.9948 18.279 55.0869 17.785 55.2556 17.3557L53.3941 16.6243ZM52.9948 18.85V19.06H54.9948V18.85H52.9948ZM53.9948 20.06H62.8748V18.06H53.9948V20.06ZM63.8748 19.06V18.73H61.8748V19.06H63.8748ZM63.8748 18.73C63.8748 17.941 63.7469 17.195 63.4756 16.5043L61.6141 17.2357C61.7828 17.665 61.8748 18.159 61.8748 18.73H63.8748ZM63.4866 16.5337C63.2434 15.8527 62.8832 15.25 62.3998 14.7412L60.9498 16.1187C61.2265 16.41 61.4463 16.7673 61.6031 17.2063L63.4866 16.5337ZM62.4341 14.7792C61.9649 14.2318 61.3813 13.8206 60.7021 13.5439L59.9475 15.3961C60.3483 15.5594 60.6648 15.7882 60.9156 16.0808L62.4341 14.7792ZM60.7145 13.549C60.0558 13.2704 59.3409 13.14 58.5848 13.14V15.14C59.1088 15.14 59.5539 15.2296 59.9352 15.391L60.7145 13.549ZM77.2031 10.75V9.75H76.2031V10.75H77.2031ZM77.2031 28V29H78.2031V28H77.2031ZM72.7031 28H71.7031V29H72.7031V28ZM72.7031 10.75H73.7031V9.75H72.7031V10.75ZM66.6731 10.75H65.6731V11.75H66.6731V10.75ZM66.6731 7.06V6.06H65.6731V7.06H66.6731ZM83.2331 7.06H84.2331V6.06H83.2331V7.06ZM83.2331 10.75V11.75H84.2331V10.75H83.2331ZM76.2031 10.75V28H78.2031V10.75H76.2031ZM77.2031 27H72.7031V29H77.2031V27ZM73.7031 28V10.75H71.7031V28H73.7031ZM72.7031 9.75H66.6731V11.75H72.7031V9.75ZM67.6731 10.75V7.06H65.6731V10.75H67.6731ZM66.6731 8.06H83.2331V6.06H66.6731V8.06ZM82.2331 7.06V10.75H84.2331V7.06H82.2331ZM83.2331 9.75H77.2031V11.75H83.2331V9.75ZM84.3914 5.8V4.8H83.3914V5.8H84.3914ZM88.8314 5.8H89.8314V4.8H88.8314V5.8ZM88.8314 15.34H87.8314V16.34H88.8314V15.34ZM89.0114 15.34V16.34H89.6828L89.937 15.7186L89.0114 15.34ZM90.6014 13.12L91.2154 13.9094L91.2211 13.9049L90.6014 13.12ZM91.8914 12.43L92.2076 13.3787L92.2189 13.3749L92.2301 13.3709L91.8914 12.43ZM95.6114 12.55L95.2247 13.4722L95.2375 13.4776L95.2504 13.4826L95.6114 12.55ZM97.2014 13.66L97.9521 12.9994L97.2014 13.66ZM98.2214 15.49L97.2727 15.8062L97.2766 15.818L97.2809 15.8296L98.2214 15.49ZM98.6114 28V29H99.6114V28H98.6114ZM94.1714 28H93.1714V29H94.1714V28ZM90.5414 15.73L90.7839 16.7001L90.8039 16.6952L90.8236 16.6894L90.5414 15.73ZM89.6714 16.15L90.2406 16.9722L90.2612 16.9579L90.2811 16.9426L89.6714 16.15ZM89.0414 16.84L88.1732 16.3439L88.1594 16.368L88.147 16.3928L89.0414 16.84ZM88.8314 28V29H89.8314V28H88.8314ZM84.3914 28H83.3914V29H84.3914V28ZM84.3914 6.8H88.8314V4.8H84.3914V6.8ZM87.8314 5.8V15.34H89.8314V5.8H87.8314ZM88.8314 16.34H89.0114V14.34H88.8314V16.34ZM89.937 15.7186C90.0911 15.3419 90.2779 14.9945 90.4967 14.6747L88.8461 13.5453C88.5449 13.9855 88.2917 14.4581 88.0859 14.9614L89.937 15.7186ZM90.4967 14.6747C90.6989 14.3792 90.9378 14.1252 91.2153 13.9094L89.9875 12.3306C89.545 12.6748 89.1639 13.0808 88.8461 13.5453L90.4967 14.6747ZM91.2211 13.9049C91.5061 13.6798 91.8325 13.5037 92.2076 13.3787L91.5752 11.4813C90.9903 11.6763 90.4567 11.9602 89.9818 12.3351L91.2211 13.9049ZM92.2301 13.3709C92.605 13.2359 93.048 13.16 93.5714 13.16V11.16C92.8548 11.16 92.1778 11.2641 91.5527 11.4891L92.2301 13.3709ZM93.5714 13.16C94.192 13.16 94.7389 13.2685 95.2247 13.4722L95.9981 11.6278C95.2439 11.3115 94.4308 11.16 93.5714 11.16V13.16ZM95.2504 13.4826C95.7203 13.6644 96.1167 13.941 96.4507 14.3206L97.9521 12.9994C97.4062 12.379 96.7426 11.9156 95.9724 11.6174L95.2504 13.4826ZM96.4507 14.3206C96.7908 14.7072 97.0691 15.1955 97.2727 15.8062L99.1701 15.1738C98.8937 14.3445 98.492 13.6128 97.9521 12.9994L96.4507 14.3206ZM97.2809 15.8296C97.4937 16.4191 97.6114 17.1303 97.6114 17.98H99.6114C99.6114 16.9497 99.4691 16.0009 99.162 15.1504L97.2809 15.8296ZM97.6114 17.98V28H99.6114V17.98H97.6114ZM98.6114 27H94.1714V29H98.6114V27ZM95.1714 28V18.58H93.1714V28H95.1714ZM95.1714 18.58C95.1714 17.4574 94.9302 16.4287 94.2734 15.6736C93.5933 14.892 92.6246 14.58 91.5614 14.58V16.58C92.2382 16.58 92.5745 16.768 92.7645 16.9864C92.9776 17.2313 93.1714 17.7026 93.1714 18.58H95.1714ZM91.5614 14.58C91.1219 14.58 90.687 14.6448 90.2592 14.7706L90.8236 16.6894C91.0758 16.6152 91.3209 16.58 91.5614 16.58V14.58ZM90.2989 14.7599C89.8463 14.873 89.4312 15.0731 89.0617 15.3574L90.2811 16.9426C90.4316 16.8269 90.5965 16.747 90.7839 16.7001L90.2989 14.7599ZM89.1022 15.3278C88.7169 15.5945 88.4057 15.9369 88.1732 16.3439L89.9096 17.3361C89.9971 17.1831 90.1059 17.0655 90.2406 16.9722L89.1022 15.3278ZM88.147 16.3928C87.9243 16.8382 87.8314 17.3275 87.8314 17.83H89.8314C89.8314 17.5725 89.8786 17.4018 89.9358 17.2872L88.147 16.3928ZM87.8314 17.83V28H89.8314V17.83H87.8314ZM88.8314 27H84.3914V29H88.8314V27ZM85.3914 28V5.8H83.3914V28H85.3914ZM101.15 24.55V23.55H100.15V24.55H101.15ZM104.72 24.55V25.55H105.72V24.55H104.72ZM104.72 15.97H105.72V14.97H104.72V15.97ZM101.15 15.97H100.15V16.97H101.15V15.97ZM101.15 12.52V11.52H100.15V12.52H101.15ZM109.16 12.52H110.16V11.52H109.16V12.52ZM109.16 16.9H108.16V17.9H109.16V16.9ZM109.37 16.9V17.9H110.15L110.34 17.1425L109.37 16.9ZM109.94 15.28L109.039 14.8462L109.035 14.8535L109.032 14.8609L109.94 15.28ZM110.9 13.87L110.176 13.1803L110.175 13.1812L110.9 13.87ZM112.34 12.88L112.734 13.7991L112.734 13.7991L112.34 12.88ZM115.79 12.52H116.79V11.52H115.79V12.52ZM115.79 16.6V17.6H116.79V16.6H115.79ZM110 17.59L110.752 18.2485L110.757 18.2428L110.762 18.237L110 17.59ZM109.16 24.55H108.16V25.55H109.16V24.55ZM114.26 24.55H115.26V23.55H114.26V24.55ZM114.26 28V29H115.26V28H114.26ZM101.15 28H100.15V29H101.15V28ZM101.15 25.55H104.72V23.55H101.15V25.55ZM105.72 24.55V15.97H103.72V24.55H105.72ZM104.72 14.97H101.15V16.97H104.72V14.97ZM102.15 15.97V12.52H100.15V15.97H102.15ZM101.15 13.52H109.16V11.52H101.15V13.52ZM108.16 12.52V16.9H110.16V12.52H108.16ZM109.16 17.9H109.37V15.9H109.16V17.9ZM110.34 17.1425C110.465 16.6427 110.634 16.1618 110.848 15.6991L109.032 14.8609C108.765 15.4382 108.555 16.0373 108.4 16.6575L110.34 17.1425ZM110.841 15.7138C111.059 15.2594 111.322 14.8772 111.625 14.5587L110.175 13.1812C109.717 13.6628 109.34 14.2206 109.039 14.8462L110.841 15.7138ZM111.624 14.5597C111.926 14.2426 112.292 13.9885 112.734 13.7991L111.946 11.9609C111.268 12.2515 110.674 12.6574 110.176 13.1803L111.624 14.5597ZM112.734 13.7991C113.142 13.6239 113.663 13.52 114.32 13.52V11.52C113.457 11.52 112.657 11.6561 111.946 11.9609L112.734 13.7991ZM114.32 13.52H115.79V11.52H114.32V13.52ZM114.79 12.52V16.6H116.79V12.52H114.79ZM115.79 15.6H112.49V17.6H115.79V15.6ZM112.49 15.6C111.182 15.6 110.036 16.001 109.237 16.943L110.762 18.237C111.083 17.859 111.598 17.6 112.49 17.6V15.6ZM109.247 16.9315C108.51 17.7734 108.16 18.8052 108.16 19.96H110.16C110.16 19.2348 110.369 18.6866 110.752 18.2485L109.247 16.9315ZM108.16 19.96V24.55H110.16V19.96H108.16ZM109.16 25.55H114.26V23.55H109.16V25.55ZM113.26 24.55V28H115.26V24.55H113.26ZM114.26 27H101.15V29H114.26V27ZM102.15 28V24.55H100.15V28H102.15ZM121.178 27.82L120.81 28.7498L120.818 28.7531L120.827 28.7563L121.178 27.82ZM118.718 26.2L117.99 26.886L117.995 26.8914L118.001 26.8968L118.718 26.2ZM117.188 23.65L118.129 23.3113L118.129 23.3113L117.188 23.65ZM118.718 14.32L118.001 13.6232L117.995 13.6286L117.99 13.634L118.718 14.32ZM121.178 12.73L121.529 13.6663L121.538 13.6631L121.546 13.6598L121.178 12.73ZM127.658 12.73L127.29 13.6598L127.298 13.6631L127.307 13.6663L127.658 12.73ZM130.088 14.32L129.36 15.006L129.365 15.0114L129.371 15.0168L130.088 14.32ZM131.648 16.87L130.707 17.2087L131.648 16.87ZM131.648 23.65L130.707 23.3113L130.707 23.3113L131.648 23.65ZM130.088 26.2L129.371 25.5032L129.365 25.5086L129.36 25.514L130.088 26.2ZM127.658 27.82L128.009 28.7563L128.018 28.7531L128.026 28.7498L127.658 27.82ZM126.758 16.39L127.5 15.7197L127.5 15.7197L126.758 16.39ZM122.078 16.39L122.82 17.0603L122.82 17.0603L122.078 16.39ZM122.078 24.13L122.82 23.4597L122.82 23.4597L122.078 24.13ZM124.418 27.36C123.318 27.36 122.359 27.1951 121.529 26.8837L120.827 28.7563C121.916 29.1649 123.118 29.36 124.418 29.36V27.36ZM121.546 26.8902C120.71 26.5592 120.011 26.0959 119.435 25.5032L118.001 26.8968C118.785 27.7041 119.726 28.3208 120.81 28.7498L121.546 26.8902ZM119.446 25.514C118.889 24.9239 118.447 24.1957 118.129 23.3113L116.247 23.9887C116.649 25.1043 117.227 26.0761 117.99 26.886L119.446 25.514ZM118.129 23.3113C117.814 22.438 117.648 21.4254 117.648 20.26H115.648C115.648 21.6146 115.841 22.862 116.247 23.9887L118.129 23.3113ZM117.648 20.26C117.648 19.0946 117.814 18.082 118.129 17.2087L116.247 16.5313C115.841 17.658 115.648 18.9054 115.648 20.26H117.648ZM118.129 17.2087C118.447 16.3243 118.889 15.5961 119.446 15.006L117.99 13.634C117.227 14.4439 116.649 15.4157 116.247 16.5313L118.129 17.2087ZM119.435 15.0168C120.007 14.428 120.7 13.9772 121.529 13.6663L120.827 11.7937C119.736 12.2028 118.789 12.812 118.001 13.6232L119.435 15.0168ZM121.546 13.6598C122.371 13.3331 123.324 13.16 124.418 13.16V11.16C123.112 11.16 121.904 11.3669 120.81 11.8002L121.546 13.6598ZM124.418 13.16C125.512 13.16 126.464 13.3331 127.29 13.6598L128.026 11.8002C126.931 11.3669 125.724 11.16 124.418 11.16V13.16ZM127.307 13.6663C128.134 13.9763 128.812 14.4243 129.36 15.006L130.816 13.634C130.044 12.8157 129.102 12.2037 128.009 11.7937L127.307 13.6663ZM129.371 15.0168C129.943 15.6059 130.391 16.3306 130.707 17.2087L132.589 16.5313C132.185 15.4094 131.593 14.4341 130.805 13.6232L129.371 15.0168ZM130.707 17.2087C131.021 18.082 131.188 19.0946 131.188 20.26H133.188C133.188 18.9054 132.994 17.658 132.589 16.5313L130.707 17.2087ZM131.188 20.26C131.188 21.4254 131.021 22.438 130.707 23.3113L132.589 23.9887C132.994 22.862 133.188 21.6146 133.188 20.26H131.188ZM130.707 23.3113C130.391 24.1894 129.943 24.9141 129.371 25.5032L130.805 26.8968C131.593 26.0859 132.185 25.1106 132.589 23.9887L130.707 23.3113ZM129.36 25.514C128.808 26.0997 128.124 26.5601 127.29 26.8902L128.026 28.7498C129.112 28.3199 130.048 27.7003 130.816 26.886L129.36 25.514ZM127.307 26.8837C126.476 27.1951 125.518 27.36 124.418 27.36V29.36C125.718 29.36 126.919 29.1649 128.009 28.7563L127.307 26.8837ZM124.418 26.06C125.64 26.06 126.713 25.6714 127.5 24.8003L126.016 23.4597C125.683 23.8286 125.196 24.06 124.418 24.06V26.06ZM127.5 24.8003C128.278 23.9386 128.598 22.7866 128.598 21.49H126.598C126.598 22.4734 126.358 23.0814 126.016 23.4597L127.5 24.8003ZM128.598 21.49V19.03H126.598V21.49H128.598ZM128.598 19.03C128.598 17.7334 128.278 16.5814 127.5 15.7197L126.016 17.0603C126.358 17.4386 126.598 18.0466 126.598 19.03H128.598ZM127.5 15.7197C126.713 14.8486 125.64 14.46 124.418 14.46V16.46C125.196 16.46 125.683 16.6914 126.016 17.0603L127.5 15.7197ZM124.418 14.46C123.196 14.46 122.123 14.8486 121.336 15.7197L122.82 17.0603C123.153 16.6914 123.64 16.46 124.418 16.46V14.46ZM121.336 15.7197C120.558 16.5814 120.238 17.7334 120.238 19.03H122.238C122.238 18.0466 122.478 17.4386 122.82 17.0603L121.336 15.7197ZM120.238 19.03V21.49H122.238V19.03H120.238ZM120.238 21.49C120.238 22.7866 120.558 23.9386 121.336 24.8003L122.82 23.4597C122.478 23.0814 122.238 22.4734 122.238 21.49H120.238ZM121.336 24.8003C122.123 25.6714 123.196 26.06 124.418 26.06V24.06C123.64 24.06 123.153 23.8286 122.82 23.4597L121.336 24.8003ZM132.116 12.52V11.52H130.991L131.123 12.6374L132.116 12.52ZM135.806 12.52L136.802 12.4318L136.722 11.52H135.806V12.52ZM136.916 25.06L135.92 25.1482L136.001 26.06H136.916V25.06ZM137.216 25.06V26.06H138.081L138.206 25.2044L137.216 25.06ZM139.046 12.52V11.52H138.182L138.057 12.3756L139.046 12.52ZM142.946 12.52L143.936 12.3779L143.813 11.52H142.946V12.52ZM144.746 25.06L143.756 25.2021L143.88 26.06H144.746V25.06ZM145.046 25.06V26.06H145.959L146.042 25.1505L145.046 25.06ZM146.186 12.52V11.52H145.273L145.19 12.4295L146.186 12.52ZM149.696 12.52L150.689 12.6374L150.821 11.52H149.696V12.52ZM147.866 28V29H148.755L148.859 28.1174L147.866 28ZM142.586 28L141.596 28.1418L141.719 29H142.586V28ZM141.056 17.32L142.046 17.1782L141.923 16.32H141.056V17.32ZM140.756 17.32V16.32H139.889L139.766 17.1782L140.756 17.32ZM139.226 28V29H140.093L140.216 28.1418L139.226 28ZM133.946 28L132.953 28.1174L133.058 29H133.946V28ZM132.116 13.52H135.806V11.52H132.116V13.52ZM134.81 12.6082L135.92 25.1482L137.912 24.9718L136.802 12.4318L134.81 12.6082ZM136.916 26.06H137.216V24.06H136.916V26.06ZM138.206 25.2044L140.036 12.6644L138.057 12.3756L136.227 24.9156L138.206 25.2044ZM139.046 13.52H142.946V11.52H139.046V13.52ZM141.956 12.6621L143.756 25.2021L145.736 24.9179L143.936 12.3779L141.956 12.6621ZM144.746 26.06H145.046V24.06H144.746V26.06ZM146.042 25.1505L147.182 12.6105L145.19 12.4295L144.05 24.9695L146.042 25.1505ZM146.186 13.52H149.696V11.52H146.186V13.52ZM148.703 12.4026L146.873 27.8826L148.859 28.1174L150.689 12.6374L148.703 12.4026ZM147.866 27H142.586V29H147.866V27ZM143.576 27.8582L142.046 17.1782L140.066 17.4618L141.596 28.1418L143.576 27.8582ZM141.056 16.32H140.756V18.32H141.056V16.32ZM139.766 17.1782L138.236 27.8582L140.216 28.1418L141.746 17.4618L139.766 17.1782ZM139.226 27H133.946V29H139.226V27ZM134.939 27.8826L133.109 12.4026L131.123 12.6374L132.953 28.1174L134.939 27.8826Z" fill="white" mask="url(#path-1-outside-1_400_102)"/>
<mask id="path-3-outside-2_400_102" maskUnits="userSpaceOnUse" x="157" y="1" width="133" height="31" fill="black">
<rect fill="white" x="157" y="1" width="133" height="31"/>
<path d="M178.34 2.89H182.36V30.67H178.34V2.89ZM170.15 5.77H174.11C174.11 14.26 171.23 21.22 161.36 25.99L159.29 22.81C167.27 18.97 170.15 13.93 170.15 6.49V5.77ZM160.76 5.77H172.04V8.92H160.76V5.77ZM195.828 3.04H199.188V3.55C199.188 8.2 195.018 11.86 187.848 12.64L186.528 9.64C192.798 9.01 195.828 6.25 195.828 3.55V3.04ZM196.518 3.04H199.908V3.55C199.908 6.25 202.938 9.01 209.178 9.64L207.858 12.64C200.688 11.86 196.518 8.2 196.518 3.55V3.04ZM195.828 16.21H199.818V20.08H195.828V16.21ZM185.298 13.78H210.408V16.9H185.298V13.78ZM188.178 18.7H207.378V25.9H192.138V28.3H188.208V23.14H203.448V21.67H188.178V18.7ZM188.208 27.49H208.098V30.49H188.208V27.49ZM214.605 3.37H218.535V5.2H229.365V3.37H233.325V12.67H214.605V3.37ZM218.535 8.11V9.73H229.365V8.11H218.535ZM211.395 14.17H236.505V17.29H211.395V14.17ZM214.275 18.88H233.475V25.93H218.235V28.45H214.305V23.2H229.545V21.79H214.275V18.88ZM214.305 27.52H234.195V30.49H214.305V27.52ZM237.523 24.37H262.663V27.61H237.523V24.37ZM248.053 19.12H252.043V25.69H248.053V19.12ZM240.343 4.69H259.843V13.93H244.363V18.61H240.403V10.81H255.883V7.84H240.343V4.69ZM240.403 17.02H260.473V20.23H240.403V17.02ZM266.171 5.44H283.781V8.59H266.171V5.44ZM263.621 23.8H288.731V27.04H263.621V23.8ZM281.681 5.44H285.641V8.74C285.641 12.64 285.641 16.42 284.651 22.12L280.661 21.79C281.681 16.45 281.681 12.49 281.681 8.74V5.44Z"/>
</mask>
<path d="M178.34 2.89H182.36V30.67H178.34V2.89ZM170.15 5.77H174.11C174.11 14.26 171.23 21.22 161.36 25.99L159.29 22.81C167.27 18.97 170.15 13.93 170.15 6.49V5.77ZM160.76 5.77H172.04V8.92H160.76V5.77ZM195.828 3.04H199.188V3.55C199.188 8.2 195.018 11.86 187.848 12.64L186.528 9.64C192.798 9.01 195.828 6.25 195.828 3.55V3.04ZM196.518 3.04H199.908V3.55C199.908 6.25 202.938 9.01 209.178 9.64L207.858 12.64C200.688 11.86 196.518 8.2 196.518 3.55V3.04ZM195.828 16.21H199.818V20.08H195.828V16.21ZM185.298 13.78H210.408V16.9H185.298V13.78ZM188.178 18.7H207.378V25.9H192.138V28.3H188.208V23.14H203.448V21.67H188.178V18.7ZM188.208 27.49H208.098V30.49H188.208V27.49ZM214.605 3.37H218.535V5.2H229.365V3.37H233.325V12.67H214.605V3.37ZM218.535 8.11V9.73H229.365V8.11H218.535ZM211.395 14.17H236.505V17.29H211.395V14.17ZM214.275 18.88H233.475V25.93H218.235V28.45H214.305V23.2H229.545V21.79H214.275V18.88ZM214.305 27.52H234.195V30.49H214.305V27.52ZM237.523 24.37H262.663V27.61H237.523V24.37ZM248.053 19.12H252.043V25.69H248.053V19.12ZM240.343 4.69H259.843V13.93H244.363V18.61H240.403V10.81H255.883V7.84H240.343V4.69ZM240.403 17.02H260.473V20.23H240.403V17.02ZM266.171 5.44H283.781V8.59H266.171V5.44ZM263.621 23.8H288.731V27.04H263.621V23.8ZM281.681 5.44H285.641V8.74C285.641 12.64 285.641 16.42 284.651 22.12L280.661 21.79C281.681 16.45 281.681 12.49 281.681 8.74V5.44Z" fill="black"/>
<path d="M178.34 2.89V1.89H177.34V2.89H178.34ZM182.36 2.89H183.36V1.89H182.36V2.89ZM182.36 30.67V31.67H183.36V30.67H182.36ZM178.34 30.67H177.34V31.67H178.34V30.67ZM170.15 5.77V4.77H169.15V5.77H170.15ZM174.11 5.77H175.11V4.77H174.11V5.77ZM161.36 25.99L160.522 26.5355L161.002 27.2735L161.795 26.8904L161.36 25.99ZM159.29 22.81L158.856 21.9089L157.831 22.4022L158.452 23.3555L159.29 22.81ZM160.76 5.77V4.77H159.76V5.77H160.76ZM172.04 5.77H173.04V4.77H172.04V5.77ZM172.04 8.92V9.92H173.04V8.92H172.04ZM160.76 8.92H159.76V9.92H160.76V8.92ZM178.34 3.89H182.36V1.89H178.34V3.89ZM181.36 2.89V30.67H183.36V2.89H181.36ZM182.36 29.67H178.34V31.67H182.36V29.67ZM179.34 30.67V2.89H177.34V30.67H179.34ZM170.15 6.77H174.11V4.77H170.15V6.77ZM173.11 5.77C173.11 9.90509 172.408 13.5785 170.569 16.7765C168.735 19.9663 165.717 22.7737 160.925 25.0896L161.795 26.8904C166.873 24.4363 170.23 21.3787 172.303 17.7735C174.372 14.1765 175.11 10.1249 175.11 5.77H173.11ZM162.198 25.4445L160.128 22.2645L158.452 23.3555L160.522 26.5355L162.198 25.4445ZM159.724 23.7111C163.823 21.7385 166.707 19.4122 168.554 16.541C170.403 13.6653 171.15 10.3412 171.15 6.49H169.15C169.15 10.0788 168.457 12.9947 166.871 15.459C165.283 17.9278 162.737 20.0415 158.856 21.9089L159.724 23.7111ZM171.15 6.49V5.77H169.15V6.49H171.15ZM160.76 6.77H172.04V4.77H160.76V6.77ZM171.04 5.77V8.92H173.04V5.77H171.04ZM172.04 7.92H160.76V9.92H172.04V7.92ZM161.76 8.92V5.77H159.76V8.92H161.76ZM195.828 3.04V2.04H194.828V3.04H195.828ZM199.188 3.04H200.188V2.04H199.188V3.04ZM187.848 12.64L186.932 13.0427L187.227 13.7134L187.956 13.6341L187.848 12.64ZM186.528 9.64L186.428 8.64501L185.058 8.78264L185.612 10.0427L186.528 9.64ZM196.518 3.04V2.04H195.518V3.04H196.518ZM199.908 3.04H200.908V2.04H199.908V3.04ZM209.178 9.64L210.093 10.0427L210.647 8.78328L209.278 8.64506L209.178 9.64ZM207.858 12.64L207.75 13.6341L208.478 13.7134L208.773 13.0427L207.858 12.64ZM195.828 16.21V15.21H194.828V16.21H195.828ZM199.818 16.21H200.818V15.21H199.818V16.21ZM199.818 20.08V21.08H200.818V20.08H199.818ZM195.828 20.08H194.828V21.08H195.828V20.08ZM185.298 13.78V12.78H184.298V13.78H185.298ZM210.408 13.78H211.408V12.78H210.408V13.78ZM210.408 16.9V17.9H211.408V16.9H210.408ZM185.298 16.9H184.298V17.9H185.298V16.9ZM188.178 18.7V17.7H187.178V18.7H188.178ZM207.378 18.7H208.378V17.7H207.378V18.7ZM207.378 25.9V26.9H208.378V25.9H207.378ZM192.138 25.9V24.9H191.138V25.9H192.138ZM192.138 28.3V29.3H193.138V28.3H192.138ZM188.208 28.3H187.208V29.3H188.208V28.3ZM188.208 23.14V22.14H187.208V23.14H188.208ZM203.448 23.14V24.14H204.448V23.14H203.448ZM203.448 21.67H204.448V20.67H203.448V21.67ZM188.178 21.67H187.178V22.67H188.178V21.67ZM188.208 27.49V26.49H187.208V27.49H188.208ZM208.098 27.49H209.098V26.49H208.098V27.49ZM208.098 30.49V31.49H209.098V30.49H208.098ZM188.208 30.49H187.208V31.49H188.208V30.49ZM195.828 4.04H199.188V2.04H195.828V4.04ZM198.188 3.04V3.55H200.188V3.04H198.188ZM198.188 3.55C198.188 7.44205 194.694 10.8893 187.74 11.6459L187.956 13.6341C195.342 12.8306 200.188 8.95795 200.188 3.55H198.188ZM188.763 12.2373L187.443 9.23726L185.612 10.0427L186.932 13.0427L188.763 12.2373ZM186.628 10.635C189.88 10.3082 192.388 9.42102 194.112 8.18364C195.84 6.94345 196.828 5.30462 196.828 3.55H194.828C194.828 4.49538 194.3 5.58655 192.946 6.55885C191.587 7.53398 189.446 8.34177 186.428 8.64501L186.628 10.635ZM196.828 3.55V3.04H194.828V3.55H196.828ZM196.518 4.04H199.908V2.04H196.518V4.04ZM198.908 3.04V3.55H200.908V3.04H198.908ZM198.908 3.55C198.908 5.30423 199.895 6.94283 201.619 8.18297C203.339 9.4205 205.84 10.3081 209.077 10.6349L209.278 8.64506C206.276 8.34194 204.142 7.5345 202.787 6.55953C201.435 5.58717 200.908 4.49577 200.908 3.55H198.908ZM208.262 9.23726L206.942 12.2373L208.773 13.0427L210.093 10.0427L208.262 9.23726ZM207.966 11.6459C201.012 10.8893 197.518 7.44205 197.518 3.55H195.518C195.518 8.95795 200.364 12.8306 207.75 13.6341L207.966 11.6459ZM197.518 3.55V3.04H195.518V3.55H197.518ZM195.828 17.21H199.818V15.21H195.828V17.21ZM198.818 16.21V20.08H200.818V16.21H198.818ZM199.818 19.08H195.828V21.08H199.818V19.08ZM196.828 20.08V16.21H194.828V20.08H196.828ZM185.298 14.78H210.408V12.78H185.298V14.78ZM209.408 13.78V16.9H211.408V13.78H209.408ZM210.408 15.9H185.298V17.9H210.408V15.9ZM186.298 16.9V13.78H184.298V16.9H186.298ZM188.178 19.7H207.378V17.7H188.178V19.7ZM206.378 18.7V25.9H208.378V18.7H206.378ZM207.378 24.9H192.138V26.9H207.378V24.9ZM191.138 25.9V28.3H193.138V25.9H191.138ZM192.138 27.3H188.208V29.3H192.138V27.3ZM189.208 28.3V23.14H187.208V28.3H189.208ZM188.208 24.14H203.448V22.14H188.208V24.14ZM204.448 23.14V21.67H202.448V23.14H204.448ZM203.448 20.67H188.178V22.67H203.448V20.67ZM189.178 21.67V18.7H187.178V21.67H189.178ZM188.208 28.49H208.098V26.49H188.208V28.49ZM207.098 27.49V30.49H209.098V27.49H207.098ZM208.098 29.49H188.208V31.49H208.098V29.49ZM189.208 30.49V27.49H187.208V30.49H189.208ZM214.605 3.37V2.37H213.605V3.37H214.605ZM218.535 3.37H219.535V2.37H218.535V3.37ZM218.535 5.2H217.535V6.2H218.535V5.2ZM229.365 5.2V6.2H230.365V5.2H229.365ZM229.365 3.37V2.37H228.365V3.37H229.365ZM233.325 3.37H234.325V2.37H233.325V3.37ZM233.325 12.67V13.67H234.325V12.67H233.325ZM214.605 12.67H213.605V13.67H214.605V12.67ZM218.535 8.11V7.11H217.535V8.11H218.535ZM218.535 9.73H217.535V10.73H218.535V9.73ZM229.365 9.73V10.73H230.365V9.73H229.365ZM229.365 8.11H230.365V7.11H229.365V8.11ZM211.395 14.17V13.17H210.395V14.17H211.395ZM236.505 14.17H237.505V13.17H236.505V14.17ZM236.505 17.29V18.29H237.505V17.29H236.505ZM211.395 17.29H210.395V18.29H211.395V17.29ZM214.275 18.88V17.88H213.275V18.88H214.275ZM233.475 18.88H234.475V17.88H233.475V18.88ZM233.475 25.93V26.93H234.475V25.93H233.475ZM218.235 25.93V24.93H217.235V25.93H218.235ZM218.235 28.45V29.45H219.235V28.45H218.235ZM214.305 28.45H213.305V29.45H214.305V28.45ZM214.305 23.2V22.2H213.305V23.2H214.305ZM229.545 23.2V24.2H230.545V23.2H229.545ZM229.545 21.79H230.545V20.79H229.545V21.79ZM214.275 21.79H213.275V22.79H214.275V21.79ZM214.305 27.52V26.52H213.305V27.52H214.305ZM234.195 27.52H235.195V26.52H234.195V27.52ZM234.195 30.49V31.49H235.195V30.49H234.195ZM214.305 30.49H213.305V31.49H214.305V30.49ZM214.605 4.37H218.535V2.37H214.605V4.37ZM217.535 3.37V5.2H219.535V3.37H217.535ZM218.535 6.2H229.365V4.2H218.535V6.2ZM230.365 5.2V3.37H228.365V5.2H230.365ZM229.365 4.37H233.325V2.37H229.365V4.37ZM232.325 3.37V12.67H234.325V3.37H232.325ZM233.325 11.67H214.605V13.67H233.325V11.67ZM215.605 12.67V3.37H213.605V12.67H215.605ZM217.535 8.11V9.73H219.535V8.11H217.535ZM218.535 10.73H229.365V8.73H218.535V10.73ZM230.365 9.73V8.11H228.365V9.73H230.365ZM229.365 7.11H218.535V9.11H229.365V7.11ZM211.395 15.17H236.505V13.17H211.395V15.17ZM235.505 14.17V17.29H237.505V14.17H235.505ZM236.505 16.29H211.395V18.29H236.505V16.29ZM212.395 17.29V14.17H210.395V17.29H212.395ZM214.275 19.88H233.475V17.88H214.275V19.88ZM232.475 18.88V25.93H234.475V18.88H232.475ZM233.475 24.93H218.235V26.93H233.475V24.93ZM217.235 25.93V28.45H219.235V25.93H217.235ZM218.235 27.45H214.305V29.45H218.235V27.45ZM215.305 28.45V23.2H213.305V28.45H215.305ZM214.305 24.2H229.545V22.2H214.305V24.2ZM230.545 23.2V21.79H228.545V23.2H230.545ZM229.545 20.79H214.275V22.79H229.545V20.79ZM215.275 21.79V18.88H213.275V21.79H215.275ZM214.305 28.52H234.195V26.52H214.305V28.52ZM233.195 27.52V30.49H235.195V27.52H233.195ZM234.195 29.49H214.305V31.49H234.195V29.49ZM215.305 30.49V27.52H213.305V30.49H215.305ZM237.523 24.37V23.37H236.523V24.37H237.523ZM262.663 24.37H263.663V23.37H262.663V24.37ZM262.663 27.61V28.61H263.663V27.61H262.663ZM237.523 27.61H236.523V28.61H237.523V27.61ZM248.053 19.12V18.12H247.053V19.12H248.053ZM252.043 19.12H253.043V18.12H252.043V19.12ZM252.043 25.69V26.69H253.043V25.69H252.043ZM248.053 25.69H247.053V26.69H248.053V25.69ZM240.343 4.69V3.69H239.343V4.69H240.343ZM259.843 4.69H260.843V3.69H259.843V4.69ZM259.843 13.93V14.93H260.843V13.93H259.843ZM244.363 13.93V12.93H243.363V13.93H244.363ZM244.363 18.61V19.61H245.363V18.61H244.363ZM240.403 18.61H239.403V19.61H240.403V18.61ZM240.403 10.81V9.81H239.403V10.81H240.403ZM255.883 10.81V11.81H256.883V10.81H255.883ZM255.883 7.84H256.883V6.84H255.883V7.84ZM240.343 7.84H239.343V8.84H240.343V7.84ZM240.403 17.02V16.02H239.403V17.02H240.403ZM260.473 17.02H261.473V16.02H260.473V17.02ZM260.473 20.23V21.23H261.473V20.23H260.473ZM240.403 20.23H239.403V21.23H240.403V20.23ZM237.523 25.37H262.663V23.37H237.523V25.37ZM261.663 24.37V27.61H263.663V24.37H261.663ZM262.663 26.61H237.523V28.61H262.663V26.61ZM238.523 27.61V24.37H236.523V27.61H238.523ZM248.053 20.12H252.043V18.12H248.053V20.12ZM251.043 19.12V25.69H253.043V19.12H251.043ZM252.043 24.69H248.053V26.69H252.043V24.69ZM249.053 25.69V19.12H247.053V25.69H249.053ZM240.343 5.69H259.843V3.69H240.343V5.69ZM258.843 4.69V13.93H260.843V4.69H258.843ZM259.843 12.93H244.363V14.93H259.843V12.93ZM243.363 13.93V18.61H245.363V13.93H243.363ZM244.363 17.61H240.403V19.61H244.363V17.61ZM241.403 18.61V10.81H239.403V18.61H241.403ZM240.403 11.81H255.883V9.81H240.403V11.81ZM256.883 10.81V7.84H254.883V10.81H256.883ZM255.883 6.84H240.343V8.84H255.883V6.84ZM241.343 7.84V4.69H239.343V7.84H241.343ZM240.403 18.02H260.473V16.02H240.403V18.02ZM259.473 17.02V20.23H261.473V17.02H259.473ZM260.473 19.23H240.403V21.23H260.473V19.23ZM241.403 20.23V17.02H239.403V20.23H241.403ZM266.171 5.44V4.44H265.171V5.44H266.171ZM283.781 5.44H284.781V4.44H283.781V5.44ZM283.781 8.59V9.59H284.781V8.59H283.781ZM266.171 8.59H265.171V9.59H266.171V8.59ZM263.621 23.8V22.8H262.621V23.8H263.621ZM288.731 23.8H289.731V22.8H288.731V23.8ZM288.731 27.04V28.04H289.731V27.04H288.731ZM263.621 27.04H262.621V28.04H263.621V27.04ZM281.681 5.44V4.44H280.681V5.44H281.681ZM285.641 5.44H286.641V4.44H285.641V5.44ZM284.651 22.12L284.568 23.1166L285.479 23.192L285.636 22.2911L284.651 22.12ZM280.661 21.79L279.678 21.6024L279.47 22.6949L280.578 22.7866L280.661 21.79ZM266.171 6.44H283.781V4.44H266.171V6.44ZM282.781 5.44V8.59H284.781V5.44H282.781ZM283.781 7.59H266.171V9.59H283.781V7.59ZM267.171 8.59V5.44H265.171V8.59H267.171ZM263.621 24.8H288.731V22.8H263.621V24.8ZM287.731 23.8V27.04H289.731V23.8H287.731ZM288.731 26.04H263.621V28.04H288.731V26.04ZM264.621 27.04V23.8H262.621V27.04H264.621ZM281.681 6.44H285.641V4.44H281.681V6.44ZM284.641 5.44V8.74H286.641V5.44H284.641ZM284.641 8.74C284.641 12.6268 284.64 16.3366 283.665 21.9489L285.636 22.2911C286.641 16.5034 286.641 12.6532 286.641 8.74H284.641ZM284.733 21.1234L280.743 20.7934L280.578 22.7866L284.568 23.1166L284.733 21.1234ZM281.643 21.9776C282.682 16.5387 282.681 12.4984 282.681 8.74H280.681C280.681 12.4816 280.679 16.3613 279.678 21.6024L281.643 21.9776ZM282.681 8.74V5.44H280.681V8.74H282.681Z" fill="white" mask="url(#path-3-outside-2_400_102)"/>
</g>
<defs>
<clipPath id="clip0_400_102">
<rect width="290" height="37" fill="white"/>
</clipPath>
</defs>
</svg>
